<?xml version="1.0" standalone="no"?>
<!DOCTYPE svg PUBLIC "-//W3C//DTD SVG 20010904//EN"
 "http://www.w3.org/TR/2001/REC-SVG-20010904/DTD/svg10.dtd">
<svg version="1.0" xmlns="http://www.w3.org/2000/svg"
 width="998.000000pt" height="584.000000pt" viewBox="0 0 998.000000 584.000000"
 preserveAspectRatio="xMidYMid meet">

<g transform="translate(0.000000,584.000000) scale(0.100000,-0.100000)"
fill="#000000" stroke="none">
<path d="M0 2920 l0 -2920 4990 0 4990 0 0 2920 0 2920 -4990 0 -4990 0 0
-2920z m6228 805 c-10 -121 -39 -264 -79 -385 -36 -111 -136 -323 -149 -315
-4 3 -6 -5 -2 -17 5 -21 4 -22 -12 -9 -9 8 -14 21 -11 30 5 12 3 13 -5 5 -9
-9 -8 -17 1 -32 12 -18 9 -28 -26 -79 -22 -32 -66 -88 -97 -124 l-57 -67 -61
21 c-34 12 -57 23 -52 25 5 1 28 -4 51 -11 47 -17 56 -5 11 15 -32 14 -39 25
-15 25 8 0 15 -4 15 -9 0 -4 5 -8 11 -8 5 0 8 4 5 8 -8 13 28 11 37 -2 6 -8
10 -7 14 2 7 19 23 14 17 -5 -5 -16 -4 -16 5 -2 11 17 4 59 -10 59 -5 0 -9 -7
-9 -15 0 -8 -4 -15 -10 -15 -5 0 -10 9 -10 20 0 11 -4 20 -10 20 -5 0 -10 -10
-10 -22 0 -14 -3 -18 -8 -12 -7 12 -68 24 -141 28 -33 1 -48 8 -62 26 -11 14
-23 30 -29 37 -5 7 -10 19 -10 28 0 11 -11 15 -40 15 -25 0 -40 -5 -40 -13 0
-11 -10 -12 -130 -8 -23 1 -26 6 -27 41 -2 53 -8 60 -49 60 -24 0 -34 -5 -34
-15 0 -8 -4 -15 -9 -15 -5 0 -14 7 -21 15 -7 8 -21 15 -30 15 -10 0 -21 6 -24
13 -3 6 -3 0 0 -15 11 -50 -33 -22 -55 35 -9 24 -16 27 -55 27 -25 0 -48 5
-52 12 -4 7 -3 8 4 4 8 -5 12 2 12 18 0 14 -4 26 -10 26 -5 0 -10 -5 -10 -11
0 -6 -35 -63 -77 -127 -43 -63 -87 -131 -98 -149 -25 -41 -47 -72 -61 -87 -5
-6 -13 -19 -17 -28 -10 -26 -27 -22 -27 7 0 18 -4 23 -16 18 -13 -5 -15 -1
-10 18 3 13 3 18 0 12 -4 -9 -31 -13 -85 -13 -72 0 -79 2 -79 20 0 21 -15 27
-25 10 -5 -8 -12 -7 -22 1 -8 7 -34 12 -59 10 -30 -1 -44 2 -44 11 0 9 -3 9
-10 -2 -5 -8 -12 -12 -15 -8 -3 3 0 12 8 19 19 20 28 47 17 54 -6 3 -15 -5
-22 -19 -6 -14 -15 -26 -19 -26 -16 0 34 72 57 82 12 6 21 16 18 22 -6 17 23
49 37 40 8 -4 10 -3 5 4 -9 14 61 82 134 130 30 20 57 39 60 42 20 20 234 124
317 153 78 28 312 97 498 147 160 42 321 95 425 137 88 37 292 136 351 172 19
12 36 21 39 21 3 0 2 -43 -2 -95z m-1275 -665 c-3 -11 -9 -20 -14 -20 -10 0
-12 24 -2 33 13 13 21 7 16 -13z m673 -300 c141 -31 149 -34 147 -58 -2 -12 2
-22 8 -22 5 0 7 5 4 10 -9 14 -3 13 57 -11 105 -41 216 -104 404 -229 211
-140 349 -224 465 -282 80 -40 254 -110 303 -122 29 -7 29 -7 -45 -62 -144
-106 -497 -257 -560 -241 -11 3 -17 2 -14 -3 6 -10 -63 -19 -197 -27 -62 -3
-108 -2 -108 3 0 16 14 29 35 32 29 6 32 12 7 18 -19 6 -20 7 -5 22 12 13 13
17 2 21 -7 2 -22 12 -33 23 -11 10 -23 18 -28 18 -4 0 -8 28 -8 63 0 65 -11
87 -42 87 -14 0 -18 8 -18 40 0 25 -5 40 -12 41 -10 0 -10 2 0 6 23 9 12 39
-20 56 -29 14 -30 16 -10 16 26 1 28 10 7 37 -8 11 -15 41 -15 70 0 37 -4 54
-15 58 -8 3 -15 13 -15 23 0 10 -9 24 -20 31 -11 7 -20 18 -20 25 0 7 -9 19
-20 27 -11 8 -20 22 -20 32 0 10 -6 18 -12 19 -10 0 -10 2 0 6 23 9 13 40 -18
53 -38 16 -39 33 -2 24 24 -6 25 -5 14 8 -9 11 -10 18 -2 23 5 3 10 10 10 16
0 14 -28 11 -33 -3 -2 -7 -8 -9 -13 -5 -5 4 -2 12 6 18 13 8 13 10 0 20 -12 9
-12 10 4 5 11 -4 23 -1 27 6 6 9 13 9 35 0 14 -7 29 -11 31 -8 2 2 -16 12 -41
21 -36 14 -49 15 -60 6 -10 -8 -16 -9 -21 -1 -4 7 -10 6 -19 -2 -86 -84 -253
-178 -406 -231 -131 -45 -240 -71 -240 -58 0 5 15 11 33 13 17 2 31 8 29 13
-1 6 12 13 30 16 l33 6 -32 2 c-26 1 -33 5 -33 21 0 14 -7 20 -22 21 l-23 2
23 4 c27 5 28 19 2 33 -13 7 -20 21 -20 40 0 17 -4 30 -9 30 -4 0 -20 11 -35
25 -23 21 -30 23 -49 13 -20 -10 -21 -10 -8 5 7 10 22 17 32 17 11 0 19 6 19
14 0 7 8 16 18 20 9 3 24 10 32 15 16 9 39 20 105 46 109 45 268 55 401 25z
m144 -121 c0 -6 -4 -7 -10 -4 -5 3 -10 11 -10 16 0 6 5 7 10 4 6 -3 10 -11 10
-16z m-790 -49 c0 -5 -5 -10 -11 -10 -5 0 -7 5 -4 10 3 6 8 10 11 10 2 0 4 -4
4 -10z m935 -290 c0 -7 -6 -15 -12 -17 -8 -3 -13 4 -13 17 0 13 5 20 13 18 6
-3 12 -11 12 -18z m162 -576 c-3 -3 -12 -4 -19 -1 -8 3 -5 6 6 6 11 1 17 -2
13 -5z"/>
<path d="M5006 3245 c-3 -8 -1 -15 4 -15 6 0 10 7 10 15 0 8 -2 15 -4 15 -2 0
-6 -7 -10 -15z"/>
<path d="M4375 2980 c3 -5 8 -10 11 -10 2 0 4 5 4 10 0 6 -5 10 -11 10 -5 0
-7 -4 -4 -10z"/>
<path d="M4356 2921 c-3 -5 1 -11 9 -15 9 -3 15 0 15 9 0 16 -16 20 -24 6z"/>
<path d="M4560 2896 c0 -9 5 -16 10 -16 6 0 10 4 10 9 0 6 -4 13 -10 16 -5 3
-10 -1 -10 -9z"/>
<path d="M5884 2886 c-5 -6 -13 -20 -18 -31 -6 -16 -9 -17 -16 -5 -6 8 -10 11
-10 5 0 -5 4 -16 9 -24 9 -14 12 -11 39 38 14 27 12 35 -4 17z"/>
<path d="M4378 2883 c7 -3 16 -2 19 1 4 3 -2 6 -13 5 -11 0 -14 -3 -6 -6z"/>
<path d="M5835 2880 c-3 -5 -1 -10 4 -10 6 0 11 5 11 10 0 6 -2 10 -4 10 -3 0
-8 -4 -11 -10z"/>
<path d="M4687 2823 c-4 -3 -7 -13 -7 -22 1 -13 3 -13 11 2 11 19 8 33 -4 20z"/>
<path d="M5770 2780 c0 -5 4 -10 10 -10 5 0 7 -8 3 -17 -5 -17 -5 -17 13 0 16
15 17 19 4 27 -19 13 -30 12 -30 0z"/>
<path d="M5830 2631 c0 -6 5 -13 10 -16 6 -3 10 1 10 9 0 9 -4 16 -10 16 -5 0
-10 -4 -10 -9z"/>
<path d="M6135 1730 c3 -5 16 -10 28 -10 18 0 19 2 7 10 -20 13 -43 13 -35 0z"/>
<path d="M6203 1733 c9 -2 23 -2 30 0 6 3 -1 5 -18 5 -16 0 -22 -2 -12 -5z"/>
</g>
</svg>
